# xmcd
#
# Track frame offsets: 
#        150
#        18411
#        37055
#        62172
#        73416
#        91819
#        107612
#        118130
#        136648
#        156754
#        177743
#        193895
#        213167
#        228939
#
# Disc length: 3185 seconds
#
# Revision: 0
# Processed by: cddbd v1.5.2PL0 Copyright (c) Steve Scherf et al.
# Submitted via: ExactAudioCopy v0.99pb3
#
DISCID=c80c6f0e
DTITLE=Steve Guyger - Radio Blues
DYEAR=2008
DGENRE=Blues
TTITLE0=Lookie Here
TTITLE1=You're So Fine
TTITLE2=Cool In The Evening
TTITLE3=Little Rita
TTITLE4=Blues Won't Let Me Be
TTITLE5=School Is Over
TTITLE6=Afghan Rumble
TTITLE7=I'm Shakin'
TTITLE8=Oh Red
TTITLE9=I Can See By Your Eyes
TTITLE10=Won't You Come Out Tonight
TTITLE11=Hey Little Baby
TTITLE12=Let Me Hang Around
TTITLE13=Honeydripper
EXTD=
EXTT0=
EXTT1=
EXTT2=
EXTT3=
EXTT4=
EXTT5=
EXTT6=
EXTT7=
EXTT8=
EXTT9=
EXTT10=
EXTT11=
EXTT12=
EXTT13=
PLAYORDER=
